#!OML:ASF E:\id_vita\Project 1\Capture day 1\Session 1\Female.ASF
:FULLY-SPECIFIED
:DEGREES
705
root -24.5289 16.3858 2.19391 -167.882 3.77028 -177.821
lowerback -10.1231 0.242244 -0.604378
upperback -5.23536 0.891798 0.711033
thorax 0.218329 0.691597 1.16459
lowerneck 5.1914 1.61878 -3.99961
upperneck 2.62475 2.16618 8.00309
head -0.215542 1.12352 3.23038
rclavicle -1.93815e-014 8.94531e-016
rhumerus -48.3329 -15.9778 -69.639
rradius 23.4931
rwrist 10.2398
rhand -7.8877 7.0176
rfingers 7.12502
rthumb 18.0169 -22.1679
lclavicle -1.93815e-014 8.94531e-016
lhumerus -39.656 34.6758 67.1416
lradius 14.1744
lwrist -57.9346
lhand 11.6389 19.6814
lfingers 7.12502
lthumb 36.6791 45.8281
rfemur -23.4139 -2.50468 19.2057
rtibia 32.8534
rfoot -12.0715 -10.2171
rtoes -11.0284
lfemur -19.8378 -9.2808 -18.6588
ltibia 28.4564
lfoot -23.4667 4.00417
ltoes 3.60374
706
root -24.5206 16.3884 2.21927 -167.657 3.54649 -177.955
lowerback -10.0002 -0.0106216 -0.936891
upperback -5.29229 0.587425 0.785692
thorax 0.096098 0.549607 1.39621
lowerneck 5.16134 1.68207 -3.7566
upperneck 2.68626 2.26496 7.92667
head -0.192434 1.17829 3.15596
rclavicle -4.96962e-016 4.96962e-016
rhumerus -48.5173 -16.4339 -69.0448
rradius 23.731
rwrist 10.1653
rhand -8.64769 6.63058
rfingers 7.12502
rthumb 17.2855 -22.6207
lclavicle -4.96962e-016 4.96962e-016
lhumerus -40.1469 35.6572 66.2268
lradius 13.9922
lwrist -58.7048
lhand 11.6984 19.7212
lfingers 7.12502
lthumb 36.7354 45.8536
rfemur -23.9804 -2.59844 19.1647
rtibia 33.3301
rfoot -11.9772 -10.2838
rtoes -9.4059
lfemur -20.2247 -9.01192 -18.7009
ltibia 28.3838
lfoot -23.4191 3.27959
ltoes 4.43301
707
root -24.5187 16.3869 2.22564 -167.563 3.56602 -178.148
lowerback -10.039 -0.142114 -1.17678
upperback -5.25851 0.428711 0.763829
thorax 0.156038 0.47176 1.4937
lowerneck 4.97534 1.64704 -3.33993
upperneck 3.01753 2.23427 7.67327
head -0.0431884 1.17983 2.9941
rclavicle -9.13167e-016 -9.34288e-015
rhumerus -48.6908 -16.9621 -68.5011
rradius 23.9014
rwrist 9.97035
rhand -9.30358 5.83726
rfingers 7.12502
rthumb 16.6542 -23.4682
lclavicle -9.13167e-016 -9.34288e-015
lhumerus -40.6172 36.5759 65.2692
lradius 13.7584
lwrist -59.7007
lhand 11.676 19.6585
lfingers 7.12502
lthumb 36.7142 45.7963
rfemur -24.3924 -2.70238 18.9692
rtibia 33.815
rfoot -12.2238 -10.0056
rtoes -8.59499
lfemur -20.3274 -9.04034 -18.9023
ltibia 28.2611
lfoot -23.2322 3.24627
ltoes 4.77811
708
root -24.5155 16.3865 2.22779 -167.604 3.57913 -178.356
lowerback -9.95175 -0.250925 -1.36939
upperback -5.23866 0.293449 0.683718
thorax 0.133504 0.403729 1.50527
lowerneck 4.79743 1.54725 -2.76812
upperneck 3.43411 2.11968 7.1746
head 0.140258 1.14217 2.72452
rclavicle -2.93207e-015 -1.88845e-015
rhumerus -48.9832 -17.3849 -68.1126
rradius 24.2085
rwrist 9.46912
rhand -9.26359 5.42348
rfingers 7.12502
rthumb 16.6927 -23.8788
lclavicle -2.93207e-015 -1.88845e-015
lhumerus -41.2667 37.6373 63.9694
lradius 13.4205
lwrist -61.0048
lhand 11.4782 19.6305
lfingers 7.12502
lthumb 36.527 45.8158
rfemur -24.6166 -2.78147 18.7397
rtibia 34.2838
rfoot -12.2704 -9.85797
rtoes -7.31735
lfemur -20.2545 -9.02687 -19.159
ltibia 28.1381
lfoot -23.1112 3.34265
ltoes 4.4723
709
root -24.5104 16.3879 2.23114 -167.762 3.76053 -178.484
lowerback -9.82499 -0.323988 -1.52169
upperback -5.13429 0.188159 0.64036
thorax 0.176207 0.343572 1.53559
lowerneck 4.6887 1.53075 -2.32122
upperneck 3.70345 2.11597 6.86665
head 0.253257 1.15488 2.54177
rclavicle 8.04457e-015 -1.59028e-015
rhumerus -49.0172 -17.7695 -67.8044
rradius 24.3398
rwrist 9.15115
rhand -9.62545 5.11855
rfingers 7.12502
rthumb 16.3443 -24.2127
lclavicle 8.04457e-015 -1.59028e-015
lhumerus -42.1076 39.2284 62.2387
lradius 12.9769
lwrist -62.7611
lhand 11.2474 19.69
lfingers 7.12502
lthumb 36.3085 45.9301
rfemur -24.697 -2.61681 18.5628
rtibia 34.707
rfoot -12.3786 -9.619
rtoes -6.49738
lfemur -20.0545 -8.82466 -19.3762
ltibia 28.049
lfoot -23.0307 3.45173
ltoes 3.92781
710
root -24.5062 16.3872 2.23699 -167.987 4.06801 -178.483
lowerback -9.4324 -0.245473 -1.21767
upperback -5.15166 0.252943 0.371789
thorax -0.0561892 0.363536 1.09056
lowerneck 4.01337 1.40868 -2.21986
upperneck 4.91864 1.94848 7.11905
head 0.758951 1.12909 2.62887
rclavicle 1.30452e-015 -5.76476e-015
rhumerus -49.4053 -18.4426 -67.6262
rradius 24.4933
rwrist 8.96518
rhand -10.2604 4.84041
rfingers 7.12502
rthumb 15.7329 -24.5401
lclavicle 1.30452e-015 -5.76476e-015
lhumerus -43.2316 40.676 59.9182
lradius 12.5554
lwrist -64.8752
lhand 11.0834 19.7855
lfingers 7.12502
lthumb 36.1531 46.0643
rfemur -24.7061 -2.43661 18.5181
rtibia 35.0651
rfoot -12.3176 -9.46129
rtoes -5.89107
lfemur -19.811 -8.70882 -19.4635
ltibia 28.0242
lfoot -22.9355 3.75655
ltoes 3.69733
711
root -24.5012 16.3867 2.24624 -168.005 4.32357 -178.434
lowerback -9.31313 -0.396698 -1.29428
upperback -5.16065 0.0511327 0.519973
thorax -0.125496 0.264969 1.26758
lowerneck 2.49932 1.07312 -2.44167
upperneck 7.03964 1.46098 6.77917
head 1.72625 0.957625 2.60992
rclavicle -1.37472e-014 3.97569e-016
rhumerus -49.4762 -18.5233 -67.3476
rradius 24.7987
rwrist 8.66986
rhand -11.0471 4.69361
rfingers 7.12502
rthumb 14.9751 -24.745
lclavicle -1.37472e-014 3.97569e-016
lhumerus -45.2763 43.1113 57.0147
lradius 12.2815
lwrist -67.6636
lhand 10.8661 19.7479
lfingers 7.12502
lthumb 35.9473 46.0773
rfemur -24.9279 -2.40452 18.566
rtibia 35.3572
rfoot -11.5986 -9.41145
rtoes -10.015
lfemur -19.8419 -8.79744 -19.4184
ltibia 28.0856
lfoot -22.8969 4.19984
ltoes 3.31591
712
root -24.4963 16.3869 2.25518 -167.946 4.56431 -178.44
lowerback -9.37637 -0.645812 -1.40984
upperback -5.14881 -0.273235 0.697606
thorax -0.067243 0.106271 1.48677
lowerneck 2.1912 1.34983 -2.66672
upperneck 7.79223 1.82671 6.85378
head 2.0065 1.16412 2.69791
rclavicle -7.73397e-015 -5.1684e-015
rhumerus -49.2537 -18.5342 -67.1468
rradius 24.7723
rwrist 8.66701
rhand -11.8336 4.77874
rfingers 7.12502
rthumb 14.2174 -24.7147
lclavicle -7.73397e-015 -5.1684e-015
lhumerus -47.5095 45.4224 54.0091
lradius 12.067
lwrist -70.2577
lhand 10.7075 19.6514
lfingers 7.12502
lthumb 35.797 46.0175
rfemur -25.2131 -2.28204 18.5327
rtibia 35.6154
rfoot -9.74771 -9.37124
rtoes -22.583
lfemur -19.9562 -9.03686 -19.3981
ltibia 28.1787
lfoot -22.8007 4.70709
ltoes 2.72387
713
root -24.4918 16.3863 2.26384 -167.89 4.83967 -178.393
lowerback -9.32312 -0.765515 -1.49784
upperback -5.20911 -0.422335 0.839422
thorax -0.152025 0.038788 1.66923
lowerneck 2.14242 1.51477 -2.51221
upperneck 8.36748 2.06832 6.61039
head 2.19365 1.30478 2.60274
rclavicle -3.79554e-015 -1.98785e-015
rhumerus -49.1977 -19.0082 -66.5944
rradius 24.5762
rwrist 8.68264
rhand -12.1819 4.84667
rfingers 7.12502
rthumb 13.8817 -24.67
lclavicle -3.79554e-015 -1.98785e-015
lhumerus -50.379 48.018 50.1145
lradius 11.7138
lwrist -73.824
lhand 10.6122 19.3543
lfingers 7.12502
lthumb 35.7068 45.7423
rfemur -25.4945 -2.07913 18.533
rtibia 35.8829
rfoot -10.0222 -9.02821
rtoes -23.2986
lfemur -20.0199 -9.17481 -19.3563
ltibia 28.2265
lfoot -22.5531 5.32371
ltoes 1.17954
